<?xml version="1.0" encoding="UTF-8"?>
<svg version="1.1" xmlns="http://www.w3.org/2000/svg" width="366" height="366">
<path d="M0 0 C0.76732452 -0.00979385 1.53464905 -0.01958771 2.32522583 -0.02967834 C34.22361251 -0.35271067 62.88544215 4.09491666 91.75 18.23828125 C92.41902344 18.56586426 93.08804687 18.89344727 93.77734375 19.23095703 C110.91351096 27.74389951 125.76691485 39.22499071 139.75 52.23828125 C140.46671875 52.88925781 141.1834375 53.54023437 141.921875 54.2109375 C171.61205351 82.32992043 192.6420498 127.301348 193.92700195 168.25390625 C193.95310676 169.66527098 193.97329425 171.07675468 193.98828125 172.48828125 C193.9980751 173.25560577 194.00786896 174.0229303 194.01795959 174.81350708 C194.34099192 206.71189376 189.89336459 235.3737234 175.75 264.23828125 C175.42241699 264.90730469 175.09483398 265.57632812 174.75732422 266.265625 C166.24438174 283.40179221 154.76329054 298.2551961 141.75 312.23828125 C141.09902344 312.955 140.44804687 313.67171875 139.77734375 314.41015625 C111.65836082 344.10033476 66.68693325 365.13033105 25.734375 366.4152832 C24.32301027 366.44138801 22.91152657 366.4615755 21.5 366.4765625 C20.73267548 366.48635635 19.96535095 366.49615021 19.17477417 366.50624084 C-12.72361251 366.82927317 -41.38544215 362.38164584 -70.25 348.23828125 C-71.25353516 347.74690674 -71.25353516 347.74690674 -72.27734375 347.24560547 C-89.41351096 338.73266299 -104.26691485 327.25157179 -118.25 314.23828125 C-118.96671875 313.58730469 -119.6834375 312.93632812 -120.421875 312.265625 C-150.11205351 284.14664207 -171.1420498 239.1752145 -172.42700195 198.22265625 C-172.45310676 196.81129152 -172.47329425 195.39980782 -172.48828125 193.98828125 C-172.4980751 193.22095673 -172.50786896 192.4536322 -172.51795959 191.66305542 C-172.84099192 159.76466874 -168.39336459 131.1028391 -154.25 102.23828125 C-153.92241699 101.56925781 -153.59483398 100.90023437 -153.25732422 100.2109375 C-144.74438174 83.07477029 -133.26329054 68.2213664 -120.25 54.23828125 C-119.27353516 53.16320313 -119.27353516 53.16320313 -118.27734375 52.06640625 C-88.99341484 21.14618845 -42.55724839 0.45185514 0 0 Z " fill="#122533" transform="translate(172.25,-0.23828125)"/>
<path d="M0 0 C30.03 0 60.06 0 91 0 C91 7.92 91 15.84 91 24 C98.92 24 106.84 24 115 24 C115 30.6 115 37.2 115 44 C121.93 44 128.86 44 136 44 C136 74.03 136 104.06 136 135 C129.07 135 122.14 135 115 135 C115.01160156 136.57652344 115.02320313 138.15304688 115.03515625 139.77734375 C115.04453243 141.83072799 115.05363282 143.8841135 115.0625 145.9375 C115.07087891 146.97841797 115.07925781 148.01933594 115.08789062 149.09179688 C115.09111328 150.08115234 115.09433594 151.07050781 115.09765625 152.08984375 C115.10289307 153.00628662 115.10812988 153.92272949 115.11352539 154.86694336 C115 157 115 157 114 158 C112.29227642 158.08713831 110.58101351 158.10700007 108.87109375 158.09765625 C107.93966553 158.09515869 107.0082373 158.09266113 106.04858398 158.09008789 C104.85692627 158.08098389 103.66526855 158.07187988 102.4375 158.0625 C98.663125 158.041875 94.88875 158.02125 91 158 C91 165.59 91 173.18 91 181 C60.97 181 30.94 181 0 181 C0 121.27 0 61.54 0 0 Z " fill="#F9F0DD" transform="translate(48,91)"/>
<path d="M0 0 C15.18 0 30.36 0 46 0 C46 52.47 46 104.94 46 159 C38.74 159 31.48 159 24 159 C24 166.59 24 174.18 24 182 C0.9 182 -22.2 182 -46 182 C-46 174.41 -46 166.82 -46 159 C-53.26 159 -60.52 159 -68 159 C-68 144.15 -68 129.3 -68 114 C-60.08 114 -52.16 114 -44 114 C-44 121.26 -44 128.52 -44 136 C-29.48 136 -14.96 136 0 136 C0 91.12 0 46.24 0 0 Z " fill="#F7EFDC" transform="translate(275,90)"/>
<path d="M0 0 C15.18 0 30.36 0 46 0 C46 30.03 46 60.06 46 91 C30.82 91 15.64 91 0 91 C0 60.97 0 30.94 0 0 Z " fill="#132533" transform="translate(93,135)"/>
</svg>
